<?xml version="1.0" encoding="UTF-8"?>
<svg id="Capa_1" data-name="Capa 1" xmlns="http://www.w3.org/2000/svg" viewBox="0 0 90.33 70.93">
  <defs>
    <style>
      .cls-1 {
        fill: #6aa065;
      }

      .cls-2 {
        fill: #73b558;
      }

      .cls-3 {
        fill: #040400;
      }

      .cls-4 {
        fill: #6bbd47;
      }

      .cls-5 {
        fill: #333;
      }

      .cls-6 {
        fill: #70a760;
      }

      .cls-7 {
        fill: #76b060;
      }

      .cls-8 {
        fill: #3e863d;
      }

      .cls-9 {
        fill: #679f5b;
      }

      .cls-10 {
        fill: #55984b;
      }

      .cls-11 {
        fill: #5f9855;
      }

      .cls-12 {
        fill: #595959;
      }

      .cls-13 {
        fill: #4a8c46;
      }

      .cls-14 {
        fill: #f8f8f8;
      }

      .cls-15 {
        fill: #fcfcfc;
      }
    </style>
  </defs>
  <rect class="cls-15" width="90.33" height="70.93" rx="3.27" ry="3.27"/>
  <g>
    <g>
      <path class="cls-5" d="M53.82,18.83c0,2.52,0,5.05,0,7.57,0,.38-.13,.64-.47,.83-1.74,.99-3.48,2-5.21,3.01-.25,.15-.5,.15-.75,0-1.77-1.02-3.54-2.04-5.31-3.07-.25-.14-.37-.35-.37-.64,0-2.05,0-4.09,0-6.14,0-.28,.12-.49,.37-.63,1.78-1.02,3.55-2.05,5.33-3.08,.25-.14,.49-.13,.73,.02,.39,.23,.77,.45,1.16,.67,.34,.19,.47,.12,.47-.27,0-2.62,0-5.23,0-7.85,0-.08,0-.15,0-.23,0-.32,.24-.46,.53-.31,.42,.23,.84,.46,1.26,.7,.58,.32,1.15,.66,1.73,.96,.37,.19,.52,.45,.52,.87-.01,2.52,0,5.05,0,7.57Zm-4.05,4.65h0c0-.33,0-.65,0-.98,0-.14-.05-.22-.17-.29-.56-.32-1.12-.64-1.68-.97-.12-.07-.22-.07-.34,0-.56,.33-1.13,.66-1.7,.98-.11,.06-.16,.15-.16,.27,0,.65,0,1.31,0,1.96,0,.13,.05,.21,.16,.27,.56,.31,1.11,.63,1.66,.96,.15,.09,.27,.08,.42,0,.54-.32,1.07-.63,1.62-.93,.14-.08,.19-.18,.18-.33,0-.31,0-.62,0-.93Z"/>
      <path class="cls-5" d="M12.24,20.1c0-.24,.13-.38,.32-.49,1.78-1.02,3.56-2.05,5.33-3.07,.27-.15,.51-.13,.77,.02,1.57,.9,3.13,1.8,4.7,2.71,.17,.1,.34,.2,.52,.29,.3,.16,.43,.4,.43,.74,0,1.43,0,2.86-.01,4.29,0,1.27,0,2.54,0,3.81,0,.46-.21,.58-.62,.35-.98-.56-1.95-1.12-2.93-1.67-.33-.18-.47-.43-.47-.81,.01-1.2,0-2.4,0-3.6,0-.36-.13-.61-.45-.78-.4-.21-.78-.44-1.17-.67-.27-.16-.54-.16-.82,0-.4,.24-.81,.48-1.22,.71-.27,.15-.38,.37-.38,.67,0,1.22,0,2.45,0,3.67,0,.38-.14,.63-.47,.81-.99,.55-1.97,1.12-2.95,1.68-.38,.22-.6,.1-.6-.34,0-1.57,0-3.15,0-4.72,0-.06,0-.12,.01-.18,.06-.05,.04-.13,.04-.19,0-1.01,0-2.02,0-3.03,0-.07,.02-.14-.04-.19Z"/>
      <path class="cls-5" d="M56.54,26.67s0-.03,0-.04c.07-.07,.05-.16,.05-.24,0-2,0-4.01,0-6.01,0-.08,.03-.17-.05-.24v-.04c.13-.1,.22-.23,.28-.37,.97-.56,1.94-1.13,2.92-1.69,.8-.46,1.6-.91,2.39-1.38,.3-.18,.57-.18,.87,0,1.73,1.01,3.46,2.01,5.19,3.01,.27,.16,.4,.37,.4,.69,0,.45,0,.9,0,1.35,0,.31-.12,.53-.39,.69-1.02,.59-2.04,1.18-3.06,1.77-.38,.22-.6,.08-.6-.34,0-.44,0-.88,0-1.32,0-.19-.07-.31-.24-.41-.52-.29-1.03-.59-1.54-.89-.17-.1-.32-.1-.49,0-.51,.3-1.02,.6-1.54,.89-.15,.09-.23,.21-.22,.39,0,.61,0,1.22,0,1.82,0,.18,.07,.3,.23,.38,1.74,.99,3.47,1.99,5.2,2.98,.03,.02,.05,.03,.08,.04,.33,.2,.34,.47,0,.66-.45,.26-.9,.5-1.35,.75-.57,.32-1.14,.63-1.71,.96-.29,.16-.55,.16-.84,0-1.73-.99-3.47-1.98-5.21-2.97-.14-.08-.26-.18-.32-.34,.07-.06,.03-.08-.03-.09Z"/>
      <path class="cls-5" d="M65.58,38.68c.47-.02,.89,.12,1.19,.49,.38,.47,.36,1.03,.17,1.55-.19,.52-.63,.75-1.18,.78-.05-.05-.11-.04-.17-.04-1,0-1.99,0-2.99,0-.06,0-.12-.02-.17,.04-.07,.06-.04,.14-.04,.21,0,.96,0,1.92,0,2.87,0,.16,0,.32-.03,.48-.16,.79-.71,1.21-1.52,1.14-.79-.06-1.27-.55-1.28-1.37-.02-1.03,0-2.07-.01-3.1,0-.08,.04-.17-.04-.23-.05-.06-.13-.04-.19-.04-.98,0-1.96,0-2.94,0-.07,0-.14-.02-.19,.04-.77-.03-1.29-.73-1.29-1.41-.01-.89,.65-1.46,1.48-1.41,.01,.02,.03,.03,.04,0,1.02,0,2.04,0,3.06,0,.01,.03,.03,.02,.04,0,.08-.07,.04-.16,.04-.23,0-.98,0-1.96,0-2.94,0-.2,.02-.39,.08-.59,.21-.71,.79-1.04,1.6-.94,.64,.08,1.14,.63,1.15,1.32,.02,1.05,0,2.1,.01,3.15,0,.08-.04,.17,.04,.24,.01,.02,.03,.03,.04,0,1.02,0,2.04,0,3.06,0,.01,.03,.03,.03,.04,0Z"/>
      <path class="cls-1" d="M33.91,36.21c0-.96,0-1.92,0-2.87,0-.46,.19-.8,.59-1.03,1.65-.95,3.31-1.9,4.96-2.86,.41-.23,.8-.24,1.21,0,1.66,.96,3.32,1.92,4.98,2.87,.4,.23,.59,.57,.59,1.03,0,1.91,0,3.82,0,5.73,0,.46-.19,.8-.59,1.03-1.63,.94-3.25,1.87-4.88,2.82-.48,.28-.94,.28-1.41-.02-.5-.31-1.01-.6-1.51-.9-.06-.03-.14-.06-.14-.14,0-.08,.09-.09,.15-.11,.13-.06,.28-.09,.4-.17,.25-.18,.47-.16,.72,.02,.29,.21,.61,.36,.92,.55,.13,.08,.23,.07,.36,0,1.61-.93,3.22-1.87,4.84-2.79,.16-.09,.23-.2,.23-.39,0-1.84,0-3.68,0-5.52,0-.2-.06-.31-.24-.42-1.57-.9-3.14-1.8-4.7-2.71-.22-.13-.39-.13-.62,0-1.56,.91-3.13,1.81-4.7,2.71-.17,.1-.25,.21-.24,.41,0,1.84,0,3.68,0,5.52,0,.18,.05,.29,.21,.38,.38,.2,.75,.43,1.13,.65,.16,.09,.32,.17,.5,.21,.48,.09,.85-.2,.85-.69,0-.94,0-1.89,0-2.83,0-.92,0-1.84,0-2.76,0-.27,.03-.3,.3-.3,.73,0,.64-.07,.65,.64,0,1.73,0,3.47,0,5.2,0,.26-.02,.52-.1,.76-.22,.66-.84,1.01-1.65,.92-.36-.04-.69-.18-1-.35-.41-.22-.8-.46-1.21-.69-.41-.23-.6-.58-.6-1.05,0-.95,0-1.9,0-2.85Z"/>
      <path class="cls-6" d="M32.39,16.81c.23-.19,.49-.3,.79-.18,.12,.2,.24,.4,.35,.61,.23,.42,.51,.82,.7,1.27-.12,.17,0,.34,0,.5,0,3.2,0,6.41,0,9.61,0,.33,0,.67,0,1-.3,.21-.63,.38-.96,.56-.06,.03-.12,.06-.19,.04-.15-.3-.3-.6-.46-.9,.16-.04,.09-.17,.09-.27,0-3.97,0-7.95,0-11.92q0-.35-.34-.32Z"/>
      <path class="cls-1" d="M41.47,39.11c-.56-.03-1.12-.09-1.63-.36-.56-.29-.84-.77-.89-1.39-.02-.19,.05-.29,.25-.28,.05,0,.11,0,.16,0,.47,0,.47,0,.61,.43,.09,.26,.26,.46,.52,.54,.73,.23,1.47,.22,2.2,.02,.1-.03,.19-.09,.27-.16,.34-.31,.26-.81-.17-.97-.51-.2-1.05-.21-1.59-.28-.38-.05-.77-.1-1.14-.23-.53-.19-.9-.53-.95-1.13-.05-.63,.18-1.13,.73-1.46,.6-.35,1.27-.38,1.95-.34,.43,.02,.86,.09,1.26,.29,.59,.3,.84,.81,.91,1.43,.02,.13-.06,.2-.18,.21-.2,0-.4,0-.59,0-.11,0-.17-.07-.19-.16-.12-.55-.49-.8-1.02-.85-.41-.04-.82-.05-1.23,.03-.15,.03-.29,.08-.42,.18-.19,.14-.25,.34-.22,.57,.03,.21,.18,.29,.36,.34,.42,.13,.85,.17,1.27,.24,.47,.07,.93,.13,1.38,.27,.55,.18,.95,.49,1.01,1.1,.07,.66-.13,1.2-.71,1.56-.55,.34-1.17,.41-1.8,.42-.06,0-.12,0-.18,0Z"/>
      <path class="cls-8" d="M32.63,29.32c.15,.3,.3,.6,.46,.9-.15,.04-.28,0-.41-.08-1.78-1.02-3.56-2.05-5.34-3.08-.08-.05-.15-.1-.19-.19,.12-.2,.23-.41,.35-.61,.44-.76,.88-1.53,1.34-2.29,.14-.23,.24-.49,.43-.69,.23,.2,.3,.5,.45,.75,.27,.44,.48,.92,.77,1.36,.05,.2,.18,.37,.28,.54,.21,.37,.37,.76,.63,1.1,.38,.78,.8,1.53,1.24,2.28Z"/>
      <path class="cls-7" d="M32.63,29.32c-.43-.75-.85-1.5-1.24-2.28,.09-.08,.05-.19,.05-.28,0-2.88,0-5.77,0-8.65,0-.27,.01-.54,.09-.81,.27-.18,.55-.35,.85-.49q.34-.03,.34,.32c0,3.97,0,7.95,0,11.92,0,.09,.07,.22-.09,.27Z"/>
      <path class="cls-9" d="M34.24,29.62c0-.33,0-.67,0-1,0-3.2,0-6.41,0-9.61,0-.17-.13-.34,0-.5,.03,.02,.06,.05,.08,.08,.4,.68,.81,1.35,1.18,2.04,.06,.11,.06,.22,.06,.33,0,2.39,0,4.79,0,7.18,0,.23-.02,.47,.05,.7-.3,.17-.59,.35-.89,.52-.16,.09-.32,.18-.48,.27Z"/>
      <path class="cls-4" d="M30.48,25.4c-.29-.43-.49-.92-.77-1.36-.15-.25-.23-.54-.45-.75,0-.07-.02-.13-.06-.19-.35-.64-.7-1.29-1.06-1.93-.27-.48-.54-.96-.81-1.44,.43-.29,.89-.53,1.33-.78,.63-.37,1.28-.73,1.91-1.09,0,.55,0,1.11,0,1.66,0,1.88,0,3.76,0,5.63,0,.09,.06,.21-.09,.24Z"/>
      <path class="cls-11" d="M35.6,28.83c-.07-.23-.05-.47-.05-.7,0-2.39,0-4.79,0-7.18,0-.11,0-.22-.06-.33-.37-.69-.78-1.37-1.18-2.04-.02-.03-.05-.05-.08-.08-.19-.45-.47-.84-.7-1.27-.11-.21-.23-.4-.35-.61,.3,.04,.51,.24,.77,.37,.03,.02,.06,.04,.1,.05-.05,.11-.02,.19,.07,.28,.11,.1,.22,.21,.31,.33,.35,.51,.72,1.01,1.08,1.5,.26,.35,.52,.69,.78,1.04,.25,.34,.51,.68,.74,1.03,.18,.28,.46,.5,.58,.83-.05,.25-.24,.44-.32,.68-.11,.04-.1,.17-.18,.23-.32-.28-.52-.65-.75-.99-.03-.05-.06-.1-.1-.15-.03-.03-.06-.08-.11-.07-.06,.01-.04,.07-.04,.12,0,.05,0,.11,0,.16,0,2.17,0,4.33,0,6.5-.15,.12-.33,.19-.5,.29Z"/>
      <path class="cls-10" d="M27.33,19.73c.27,.48,.55,.96,.81,1.44,.36,.64,.7,1.29,1.06,1.93,.03,.06,.06,.12,.06,.19-.19,.2-.29,.46-.43,.69-.45,.76-.89,1.53-1.34,2.29-.12,.2-.23,.41-.35,.61-.11-.12-.14-.27-.14-.42,0-2.05,0-4.1,0-6.15,0-.25,.09-.46,.33-.58Z"/>
      <path class="cls-2" d="M30.48,25.4c.15-.03,.09-.16,.09-.24,0-1.88,0-3.76,0-5.63,0-.55,0-1.11,0-1.66,.31-.21,.63-.39,.96-.55-.08,.26-.09,.53-.09,.81,0,2.88,0,5.77,0,8.65,0,.09,.04,.2-.05,.28-.25-.34-.42-.74-.63-1.1-.1-.18-.23-.34-.28-.54Z"/>
      <path class="cls-9" d="M37.61,22.07c-.12-.33-.4-.55-.58-.83-.23-.35-.49-.69-.74-1.03-.26-.35-.53-.69-.78-1.04-.36-.5-.73-1-1.08-1.5-.09-.13-.2-.23-.31-.33-.09-.08-.12-.16-.07-.28,.6,.29,1.16,.65,1.74,.98,.94,.53,1.87,1.07,2.8,1.61,.09,.06,.21,.09,.26,.21-.24,.45-.47,.9-.72,1.34-.17,.29-.28,.62-.52,.87Z"/>
      <path class="cls-13" d="M37.1,22.98c.08-.06,.08-.19,.18-.23,.02,.06,.08,.09,.14,.11,.42,.21,.84,.43,1.27,.63,.12,.06,.16,.23,.33,.22,.02,.93,.02,1.86,0,2.78-.06,0-.1-.03-.13-.08-.13-.23-.26-.46-.39-.69-.3-.52-.61-1.05-.92-1.57-.04-.06-.07-.16-.16-.14-.08,.02-.04,.12-.04,.18,0,1.12,0,2.25,0,3.37,0,.07-.02,.16,.06,.21-.2,.14-.41,.26-.64,.37-.08-.05-.06-.13-.06-.21,0-1.62,0-3.24,0-4.85,0-.06-.03-.14,.04-.16,.08-.03,.11,.06,.15,.11,.03,.04,.03,.14,.12,.11,.07-.02,.06-.1,.06-.16Z"/>
      <path class="cls-1" d="M61.42,23.36c-.21-.56,.14-.78,.55-1.03,.42-.26,.72-.25,1.15,0,.44,.25,.62,.51,.62,1.04,0,.52-.17,.79-.61,1.04-.42,.24-.76,.31-1.13-.02,0,0-.01,0-.02-.01-.46-.18-.75-.46-.55-1Z"/>
      <path class="cls-10" d="M37.1,22.98c0,.06,0,.13-.06,.16-.09,.03-.08-.07-.12-.11-.04-.05-.07-.14-.15-.11-.07,.03-.04,.11-.04,.16,0,1.62,0,3.24,0,4.85,0,.07-.02,.16,.06,.21-.21,.17-.46,.27-.7,.4,0-2.17,0-4.33,0-6.5,0-.05,0-.11,0-.16,0-.04-.01-.1,.04-.12,.05-.01,.08,.03,.11,.07,.04,.05,.07,.1,.1,.15,.23,.34,.43,.72,.75,.99Z"/>
      <path class="cls-8" d="M39.02,23.7c-.16,.01-.2-.16-.33-.22-.43-.2-.85-.42-1.27-.63-.05-.03-.11-.05-.14-.11,.08-.24,.27-.43,.32-.68,.23-.26,.35-.58,.52-.87,.25-.44,.48-.89,.72-1.34,.13,.1,.18,.25,.18,.4,0,1.15,0,2.3,0,3.45Z"/>
      <path class="cls-8" d="M37.43,27.77c-.08-.05-.06-.14-.06-.21,0-1.12,0-2.25,0-3.37,0-.06-.04-.16,.04-.18,.09-.03,.12,.07,.16,.14,.31,.52,.61,1.04,.92,1.57,.13,.23,.26,.46,.39,.69,.03,.05,.07,.08,.13,.08,.03,.26-.1,.44-.31,.56-.3,.18-.61,.34-.91,.51-.12,.07-.24,.14-.36,.21Z"/>
      <path class="cls-1" d="M47.98,33.94c-.55,0-.97-.45-.97-1,0-.53,.44-.97,.98-.96,.54,0,.99,.45,.99,.99,0,.53-.46,.98-1,.98Zm-.81-.98c0,.46,.38,.83,.83,.82,.44,0,.83-.4,.82-.84-.01-.46-.38-.81-.84-.8-.45,0-.8,.37-.8,.82Z"/>
      <path class="cls-12" d="M56.53,20.14c.07,.07,.05,.16,.05,.24,0,2,0,4.01,0,6.01,0,.08,.03,.17-.05,.24-.04-.07-.03-.15-.03-.22,0-2.01,0-4.03,0-6.04,0-.07-.02-.15,.03-.22Z"/>
      <path class="cls-3" d="M12.24,20.1c.06,.06,.04,.13,.04,.19,0,1.01,0,2.02,0,3.03,0,.07,.02,.14-.04,.19,0-1.14,0-2.28,0-3.42Z"/>
      <path class="cls-3" d="M56.18,41.49c.06-.06,.13-.04,.19-.04,.98,0,1.96,0,2.94,0,.07,0,.14-.02,.19,.04-1.11,0-2.22,0-3.33,0Z"/>
      <path class="cls-3" d="M62.43,41.5c.05-.06,.11-.04,.17-.04,1,0,1.99,0,2.99,0,.06,0,.12-.02,.17,.04-1.11,0-2.22,0-3.33,0Z"/>
      <path class="cls-12" d="M56.82,19.73c-.07,.14-.16,.26-.27,.37,.03-.17,.12-.29,.27-.37Z"/>
      <path class="cls-12" d="M56.54,26.67c.06,.01,.1,.03,.03,.09-.03-.02-.04-.06-.03-.09Z"/>
      <path class="cls-3" d="M59.51,38.68s-.03,.03-.04,0c.01,0,.03,0,.04,0Z"/>
      <path class="cls-3" d="M62.47,38.68s-.03,.02-.04,0c.01,0,.03,0,.04,0Z"/>
      <path class="cls-3" d="M56.41,38.68s-.03,.03-.04,0c.01,0,.03,0,.04,0Z"/>
      <path class="cls-3" d="M65.58,38.68s-.03,.03-.04,0c.01,0,.03,0,.04,0Z"/>
      <path class="cls-15" d="M49.77,23.48c0,.31,0,.62,0,.93,0,.15-.04,.25-.18,.33-.54,.3-1.08,.62-1.62,.93-.15,.09-.26,.1-.42,0-.55-.33-1.1-.64-1.66-.96-.11-.06-.16-.15-.16-.27,0-.65,0-1.31,0-1.96,0-.13,.04-.21,.16-.27,.57-.32,1.13-.65,1.7-.98,.12-.07,.22-.07,.34,0,.56,.33,1.11,.65,1.68,.97,.12,.07,.17,.15,.17,.29,0,.33,0,.65,0,.98h0Z"/>
      <path class="cls-14" d="M47.18,32.96c0-.45,.35-.81,.8-.82,.46,0,.83,.35,.84,.8,.01,.44-.37,.83-.82,.84-.45,0-.82-.36-.83-.82Zm.46,0c0,.12,0,.24,0,.36,0,.07-.04,.18,.1,.18,.14,0,.09-.11,.1-.18,0-.03,0-.06,0-.09,0-.09,0-.17,.12-.17,.11,0,.19,.03,.19,.16,0,.07,.02,.13,.03,.2,.02,.1,.09,.08,.16,.08,.09,0,.05-.07,.04-.12-.02-.1-.02-.22-.06-.31-.05-.09-.05-.13,.02-.22,.12-.15,.03-.38-.14-.42-.17-.04-.37-.07-.51,0-.12,.06-.03,.25-.05,.38,0,.04,0,.09,0,.14Z"/>
      <path class="cls-1" d="M47.63,32.96s0-.09,0-.14c.02-.13-.07-.32,.05-.38,.15-.08,.34-.05,.51,0,.18,.04,.26,.27,.14,.42-.07,.09-.07,.13-.02,.22,.05,.09,.05,.2,.06,.31,0,.05,.04,.11-.04,.12-.07,0-.14,.02-.16-.08-.01-.07-.03-.13-.03-.2,0-.14-.08-.16-.19-.16-.12,0-.13,.08-.12,.17,0,.03,0,.06,0,.09-.01,.07,.04,.18-.1,.18-.14,0-.09-.11-.1-.18,0-.12,0-.24,0-.36Zm.2-.23c-.01,.1,0,.16,.13,.16,.11,0,.2-.02,.2-.16,0-.11-.07-.14-.16-.14-.11,0-.18,.01-.16,.14Z"/>
      <path class="cls-14" d="M47.83,32.73c-.02-.13,.06-.15,.16-.14,.09,0,.16,.03,.16,.14,0,.13-.09,.15-.2,.16-.12,0-.14-.06-.13-.16Z"/>
    </g>
    <g>
      <path d="M38.68,50.85c1.36-2,2.73-2.6,4.59-2.2,1.75,.38,2.9,1.64,3.2,3.67,.12,.8,.11,1.65,.02,2.46-.21,1.79-1.1,3.1-2.93,3.59-1.95,.53-3.49-.04-4.83-1.79v5.08c-.09,.06-.18,.12-.27,.17-.15-.18-.43-.37-.44-.55-.03-4.01-.02-8.03,0-12.04,0-.16,.21-.33,.32-.49,.12,.16,.32,.31,.34,.47,.05,.45,.02,.92,.02,1.62Zm7.35,2.74c-.18-.74-.27-1.51-.54-2.21-.58-1.53-1.79-2.26-3.46-2.19-1.49,.06-2.59,.94-3.06,2.49-.39,1.3-.38,2.62,.02,3.92,.43,1.42,1.51,2.24,3,2.32,2.35,.13,3.92-1.58,4.04-4.32Z"/>
      <path d="M27.83,53.67h-7.62c-.25,1.91,.83,3.66,2.5,4.11,1.9,.52,3.47-.28,4.3-2.14,.11-.24,.37-.42,.67-.54-.02,1.04-.43,1.85-1.15,2.49-2.12,1.88-5.84,.93-6.76-1.74-.48-1.41-.5-2.84-.05-4.27,.72-2.28,2.76-3.45,5.05-2.93,2.08,.48,3.42,2.61,3.07,5.02Zm-.67-.68c0-2.35-1.48-3.88-3.58-3.81-1.95,.06-3.46,1.77-3.32,3.81h6.9Z"/>
      <path d="M61.22,55.24c-.21,1.21-.8,2.18-1.9,2.79-2.61,1.43-5.64,.07-6.31-2.82-.31-1.36-.25-2.7,.26-4,.84-2.13,2.99-3.14,5.22-2.48,1.9,.56,3.14,2.73,2.74,4.94h-7.62c-.23,2.93,2.01,4.84,4.66,4.09,1.08-.31,1.72-1.07,2.14-2.07,.11-.25,.34-.46,.52-.68,.1,.08,.19,.16,.29,.23Zm-.6-2.25c-.08-2.34-1.48-3.82-3.5-3.8-1.99,.02-3.45,1.59-3.49,3.8h6.99Z"/>
      <path d="M62.97,55.16c.16,.18,.4,.33,.47,.54,.75,2.17,3.78,3.02,5.57,1.54,.98-.81,.94-2.22-.19-2.81-.74-.38-1.61-.53-2.43-.77-.65-.19-1.33-.3-1.95-.56-1.04-.43-1.43-1.14-1.4-2.22,.03-1.06,.63-1.68,1.57-2.02,1.2-.43,2.43-.45,3.64-.04,1.2,.4,1.82,1.42,1.67,2.98-.29-.36-.53-.53-.57-.73-.23-1.12-.98-1.68-2.02-1.82-1.21-.17-2.46-.2-3.33,.9-.6,.76-.32,1.86,.64,2.28,.74,.33,1.57,.48,2.36,.7,.6,.17,1.21,.27,1.79,.48,.98,.36,1.51,1.07,1.56,2.14,.05,1.07-.43,1.85-1.37,2.27-1.49,.67-3.05,.71-4.54,.03-1.1-.5-1.69-1.44-1.72-2.67l.23-.23Z"/>
      <path d="M78.82,51.63c-.15-.18-.38-.35-.42-.55-.23-1.12-.98-1.68-2.02-1.82-1.21-.16-2.46-.2-3.33,.91-.58,.74-.32,1.83,.58,2.24,.77,.35,1.62,.51,2.44,.74,.57,.16,1.16,.25,1.71,.45,1,.37,1.58,1.07,1.62,2.19,.04,1.12-.49,1.88-1.47,2.3-1.42,.6-2.89,.64-4.31,.04-1.18-.5-1.82-1.44-1.64-2.94,.17,.16,.42,.3,.5,.49,.79,2.16,3.65,3.02,5.49,1.63,1.09-.82,1.04-2.29-.18-2.91-.72-.37-1.56-.5-2.35-.73-.68-.2-1.39-.32-2.03-.59-.93-.39-1.37-1.14-1.33-2.18,.05-1.02,.59-1.65,1.49-1.99,1.23-.47,2.49-.49,3.73-.07,1.15,.39,1.74,1.3,1.75,2.58-.08,.07-.16,.15-.23,.22Z"/>
      <path d="M28.85,48.63c.35,.2,.8,.32,1.04,.61,.91,1.11,1.75,2.28,2.62,3.44,1.43-1.21,2-3.18,3.64-4.08,.09,.08,.18,.17,.28,.25-.97,1.28-1.92,2.58-2.93,3.82-.4,.49-.37,.79,0,1.28,1.1,1.38,2.13,2.81,3.19,4.22l-.19,.26c-.34-.21-.77-.35-1-.64-.98-1.25-1.89-2.55-2.92-3.94-1.01,1.34-1.96,2.64-2.95,3.89-.24,.31-.65,.48-.99,.72-.07-.08-.14-.17-.21-.25,1.07-1.43,2.12-2.89,3.23-4.29,.37-.46,.34-.76-.02-1.2-1.02-1.25-1.98-2.55-2.96-3.83,.06-.08,.11-.16,.17-.25Z"/>
      <path d="M48.27,58.16c0-2.95,0-5.9,.02-8.85,0-.19,.22-.37,.34-.56,.11,.2,.29,.38,.32,.59,.05,.39,.01,.8,.09,1.25,.73-1.05,1.71-1.64,2.92-1.8,.24-.03,.52,.16,.78,.25-.22,.12-.42,.33-.65,.36-1.86,.26-3.07,1.66-3.11,3.7-.03,1.51,0,3.01-.02,4.52,0,.25-.23,.49-.35,.74l-.33-.2Z"/>
    </g>
  </g>
</svg>