<?xml version="1.0" encoding="UTF-8"?>
<svg id="Capa_1" data-name="Capa 1" xmlns="http://www.w3.org/2000/svg" viewBox="0 0 192.47 62.47">
  <defs>
    <style>
      .cls-1 {
        fill: #264de4;
      }

      .cls-2 {
        fill: #fff;
      }

      .cls-3 {
        fill: #e34d26;
      }

      .cls-4 {
        fill: #fad625;
      }

      .cls-5 {
        fill: #eaeaeb;
      }

      .cls-6 {
        fill: #2b66f1;
      }

      .cls-7 {
        fill: #f3e59f;
      }

      .cls-8 {
        fill: #f0652a;
      }

      .cls-9 {
        fill: #d2b52a;
      }

      .cls-10 {
        fill: #eaebeb;
      }

      .cls-11 {
        fill: #ecefee;
      }

      .cls-12 {
        fill: #fefefd;
      }

      .cls-13 {
        fill: #eaeae9;
      }

      .cls-14 {
        fill: #fefefe;
      }

      .cls-15 {
        fill: #2a65f1;
      }
    </style>
  </defs>
  <g>
    <path class="cls-3" d="M27.38,62.47c-1.12-.38-2.28-.66-3.42-.98-6.21-1.73-12.43-3.45-18.65-5.16-.22-.06-.32-.14-.34-.39-.34-3.84-.69-7.68-1.03-11.52-.27-2.98-.52-5.97-.79-8.95-.29-3.26-.59-6.52-.88-9.78-.24-2.69-.47-5.39-.71-8.08-.26-2.97-.54-5.94-.8-8.91C.54,6.26,.33,3.85,.12,1.43,.09,1.05,.06,.67,0,.29-.02,.08,.01-.02,.25,0c.07,0,.15,0,.23,0,18.04,0,36.08,0,54.12,0,.36,0,.48,.04,.44,.46-.34,3.55-.63,7.1-.95,10.65-.37,4.12-.74,8.23-1.11,12.35-.34,3.84-.68,7.68-1.02,11.52-.35,3.98-.71,7.96-1.06,11.94-.27,2.98-.55,5.97-.8,8.95-.03,.3-.15,.37-.39,.44-3.2,.88-6.4,1.77-9.6,2.66-4.11,1.14-8.22,2.28-12.33,3.42-.06,.02-.11,.05-.17,.08h-.23Zm.15-19.14c-.09-.01-.17-.01-.26-.04-2.36-.63-4.73-1.27-7.1-1.89-.31-.08-.38-.22-.4-.51-.13-1.61-.29-3.22-.42-4.83-.02-.18-.06-.26-.27-.26-2.14,0-4.27,0-6.41,0-.2,0-.27,.06-.25,.26,.04,.35,.06,.7,.09,1.06,.27,3.04,.55,6.09,.82,9.13,.02,.26,.1,.39,.37,.46,4.61,1.27,9.21,2.56,13.82,3.84,0,2.25,0,4.5,0,6.75,0,.35,.12,.36,.39,.29,2.4-.68,4.8-1.35,7.19-2.03,2.28-.64,4.56-1.27,6.84-1.91,1.15-.32,2.3-.64,3.45-.96,.15-.04,.33-.05,.35-.28,.04-.51,.11-1.02,.15-1.54,.06-.69,.1-1.38,.17-2.07,.09-.97,.2-1.95,.29-2.92,.06-.69,.1-1.38,.16-2.07,.09-1.08,.2-2.15,.29-3.23,.06-.63,.1-1.25,.16-1.88,.09-1,.2-2,.29-3,.06-.69,.1-1.38,.16-2.07,.09-1.08,.2-2.15,.29-3.23,.06-.63,.11-1.25,.16-1.88,.1-1.05,.2-2.1,.29-3.15,.06-.65,.11-1.3,.17-1.95,.09-1.02,.2-2.05,.29-3.07,.06-.66,.1-1.33,.16-1.99,.09-1.06,.2-2.12,.29-3.19,.06-.64,.11-1.28,.17-1.92,.09-1.02,.2-2.05,.29-3.07,.06-.68,.11-1.35,.17-2.03,.09-1.05,.18-2.1,.29-3.15,.04-.35-.11-.41-.43-.41-7.21,0-14.42,0-21.63,0-.33,0-.43,.09-.42,.42,.02,2.15,0,4.3,0,6.45-.18,0-.35,.02-.53,.02-5.46,0-10.92,0-16.38,0-.21,0-.41-.06-.38,.31,.33,3.47,.65,6.94,.96,10.41,.29,3.22,.58,6.44,.85,9.66,.03,.36,.15,.44,.5,.44,4.83-.01,9.66,0,14.49,0,.16,0,.33,.01,.49,.02,0,3.66,0,7.32,0,10.97Z"/>
    <path class="cls-8" d="M27.53,11.49c0-2.15,0-4.3,0-6.45,0-.34,.09-.42,.42-.42,7.21,0,14.42,0,21.63,0,.32,0,.46,.06,.43,.41-.11,1.05-.2,2.1-.29,3.15-.06,.68-.11,1.35-.17,2.03-.09,1.02-.2,2.05-.29,3.07-.06,.64-.11,1.28-.17,1.92-.1,1.06-.2,2.12-.29,3.19-.06,.66-.1,1.33-.16,1.99-.09,1.02-.19,2.05-.29,3.07-.06,.65-.11,1.3-.17,1.95-.1,1.05-.2,2.1-.29,3.15-.06,.63-.11,1.25-.16,1.88-.1,1.08-.2,2.15-.29,3.23-.06,.69-.1,1.38-.16,2.07-.09,1-.2,2-.29,3-.06,.63-.11,1.25-.16,1.88-.1,1.08-.2,2.15-.29,3.23-.06,.69-.1,1.38-.16,2.07-.09,.97-.2,1.95-.29,2.92-.06,.69-.11,1.38-.17,2.07-.04,.51-.11,1.02-.15,1.54-.02,.23-.2,.24-.35,.28-1.15,.32-2.3,.64-3.45,.96-2.28,.64-4.56,1.27-6.84,1.91-2.4,.67-4.8,1.35-7.19,2.03-.27,.08-.39,.06-.39-.29,.02-2.25,0-4.5,0-6.75,0-.01,0-.03,0-.04,4.45-1.23,8.9-2.46,13.35-3.69,.7-.19,.71-.19,.78-.92,.23-2.42,.44-4.83,.66-7.25,.19-2.1,.37-4.2,.56-6.31,.19-2.14,.39-4.28,.58-6.42,.04-.49,.03-.49-.47-.49-5.03,0-10.07,0-15.1,0-.13,0-.25,.01-.38,.02,0-.01,0-.03,0-.04,0-2.33,0-4.66,0-7,0-.02,0-.04,0-.05,.02,0,.05,.01,.07,.01,5.41,0,10.83,0,16.24,0,.23,0,.3-.06,.32-.29,.18-2.06,.38-4.13,.58-6.19,.03-.32-.04-.4-.37-.4-5.52,.01-11.03,0-16.55,0-.1,0-.2,0-.3,.01v-.03Z"/>
    <path class="cls-13" d="M27.53,18.38s0,.04,0,.05c-.15,0-.3-.03-.45-.03-2.29,0-4.58,0-6.87,0-.7,0-1.39,0-2.09,0-.25,0-.34,.07-.31,.32,.04,.29,.05,.58,.08,.87,.17,1.84,.34,3.67,.49,5.51,.03,.31,.15,.35,.42,.35,2.78,0,5.57,0,8.35,0,.13,0,.25-.01,.38-.02,0,.01,0,.03,0,.04,0,2.29,0,4.57,0,6.86v.03c-.16,0-.32-.02-.48-.02-4.83,0-9.66,0-14.49,0-.35,0-.47-.08-.5-.44-.27-3.22-.56-6.44-.85-9.66-.31-3.47-.63-6.94-.96-10.41-.04-.37,.17-.31,.38-.31,5.46,0,10.92,0,16.38,0,.18,0,.35-.01,.53-.02,0,0,0,.03,0,.03,0,2.28,0,4.56,0,6.85Z"/>
    <path class="cls-13" d="M27.53,50.52s0,.03,0,.04c-4.61-1.28-9.21-2.57-13.82-3.84-.27-.08-.35-.2-.37-.46-.27-3.05-.54-6.09-.82-9.13-.03-.35-.05-.71-.09-1.06-.02-.2,.05-.26,.25-.26,2.14,0,4.27,0,6.41,0,.2,0,.25,.08,.27,.26,.14,1.61,.3,3.22,.42,4.83,.02,.3,.09,.43,.4,.51,2.37,.62,4.73,1.26,7.1,1.89,.08,.02,.17,.02,.26,.04v.03c0,2.38,0,4.77,0,7.15Z"/>
    <path class="cls-8" d="M27.53,43.33c0-3.66,0-7.32,0-10.97,0,0,0-.03,0-.03,.14,0,.28,.02,.42,.02,2.53,0,5.06,0,7.58,0,.35,0,.49,.05,.44,.45-.11,.88-.16,1.76-.24,2.64-.17,1.86-.35,3.72-.5,5.58-.02,.25-.13,.33-.35,.39-2.45,.65-4.9,1.31-7.35,1.97v-.03Z"/>
    <path class="cls-14" d="M27.52,43.36c2.45-.66,4.9-1.32,7.35-1.97,.23-.06,.33-.14,.35-.39,.16-1.86,.33-3.72,.5-5.58,.08-.88,.14-1.76,.24-2.64,.05-.4-.09-.45-.44-.45-2.53,.01-5.06,0-7.58,0-.14,0-.28-.01-.42-.02,0-2.29,0-4.57,0-6.86,.13,0,.25-.02,.38-.02,5.03,0,10.07,0,15.1,0,.5,0,.51,0,.47,.49-.19,2.14-.39,4.28-.58,6.42-.19,2.1-.37,4.2-.56,6.31-.22,2.42-.43,4.83-.66,7.25-.07,.72-.09,.72-.78,.92-4.45,1.23-8.9,2.46-13.35,3.69,0-2.38,0-4.77-.01-7.15Z"/>
    <path class="cls-14" d="M27.53,18.38c0-2.28,0-4.56,0-6.85,.1,0,.2-.01,.3-.01,5.52,0,11.03,0,16.55,0,.33,0,.4,.09,.37,.4-.21,2.06-.4,4.13-.58,6.19-.02,.23-.09,.29-.32,.29-5.41,0-10.83,0-16.24,0-.02,0-.05,0-.07-.01Z"/>
    <path class="cls-3" d="M27.53,25.42c-.13,0-.25,.02-.38,.02-2.78,0-5.57,0-8.35,0-.27,0-.39-.04-.42-.35-.15-1.84-.33-3.68-.49-5.51-.03-.29-.04-.58-.08-.87-.04-.25,.06-.33,.31-.32,.7,.01,1.39,0,2.09,0,2.29,0,4.58,0,6.87,0,.15,0,.3,.02,.45,.03,0,2.33,0,4.66,0,7Z"/>
  </g>
  <g>
    <path class="cls-1" d="M68.71,0h55.1c-.04,.16-.05,.32-.06,.48-.07,.78-.14,1.56-.21,2.34-.11,1.28-.23,2.55-.34,3.83-.09,1-.18,2-.27,3.01-.11,1.29-.23,2.57-.35,3.86-.09,.99-.18,1.98-.26,2.98-.11,1.29-.23,2.57-.35,3.86-.09,.99-.17,1.98-.26,2.98-.11,1.29-.23,2.57-.35,3.86-.09,.99-.17,1.98-.26,2.98-.12,1.3-.23,2.59-.35,3.89-.09,.98-.17,1.96-.26,2.95-.11,1.27-.23,2.53-.34,3.8-.09,1.01-.18,2.03-.27,3.04-.11,1.26-.23,2.51-.34,3.77-.11,1.25-.22,2.49-.33,3.74-.14,1.54-.28,3.08-.41,4.62-.03,.3-.02,.3-.32,.38-.85,.24-1.7,.47-2.55,.71-6.5,1.8-13,3.6-19.5,5.41-.15,.04-.29,.04-.44,0-3.46-.96-6.93-1.92-10.39-2.88-3.88-1.08-7.75-2.15-11.62-3.23-.25-.07-.25-.07-.28-.31-.1-1.05-.19-2.11-.29-3.16-.09-1-.18-2-.27-3.01-.12-1.3-.23-2.59-.35-3.89-.09-.98-.17-1.96-.26-2.95-.12-1.31-.23-2.61-.35-3.92-.09-.98-.17-1.96-.26-2.95-.11-1.28-.23-2.55-.34-3.83-.09-1-.18-2-.27-3.01-.12-1.3-.23-2.59-.35-3.89-.09-.99-.18-1.98-.26-2.98-.11-1.28-.23-2.55-.34-3.83-.09-1-.18-2-.27-3.01-.11-1.27-.23-2.53-.34-3.8-.09-1.01-.18-2.03-.27-3.04-.12-1.3-.23-2.59-.35-3.89-.09-1.03-.19-2.06-.28-3.1-.05-.6-.1-1.2-.14-1.79Zm27.51,25.44c-.13,0-.26,.02-.39,.02-5.06,0-10.12,0-15.18,0-.09,0-.18,0-.27,0-.15-.01-.19,.06-.17,.2,.09,.9,.16,1.8,.24,2.7,.12,1.32,.24,2.65,.35,3.97,.13,.11,.29,.07,.44,.07,4.84,0,9.68,0,14.52,0q.47,0,.47,.47c0,3.33,0,6.67,0,10,0,.08,0,.16,0,.24,0,.1-.05,.17-.14,.21-.07-.01-.14-.02-.21-.04-2.3-.62-4.61-1.24-6.91-1.86-.44-.12-.43-.12-.47-.58-.14-1.6-.28-3.2-.43-4.8-.02-.23-.02-.23-.25-.23-2.15,0-4.29,0-6.44,0-.24,0-.25,0-.23,.26,.13,1.37,.25,2.73,.37,4.1,.18,2.06,.37,4.11,.55,6.17,.03,.3,.03,.31,.31,.38,2.45,.68,4.89,1.36,7.34,2.04,2.17,.6,4.34,1.21,6.51,1.82,0,.19,0,.39,0,.58,0,2.05,0,4.11,0,6.16,0,.34,.05,.38,.37,.29,.35-.1,.7-.21,1.06-.3,1.82-.5,3.65-1,5.47-1.51,1.92-.53,3.84-1.07,5.76-1.6,1.77-.49,3.55-.98,5.32-1.47,.17-.05,.26-.12,.28-.31,.05-.56,.12-1.11,.17-1.66,.07-.8,.12-1.6,.19-2.4,.07-.8,.16-1.59,.23-2.39,.07-.78,.12-1.56,.2-2.33,.03-.29,.04-.59,.07-.88,.06-.55,.11-1.11,.16-1.67,.05-.57,.09-1.13,.14-1.7,.05-.55,.12-1.09,.17-1.63,.07-.8,.12-1.6,.2-2.4,.03-.26,.04-.53,.07-.79,.06-.55,.11-1.11,.16-1.67,.05-.57,.09-1.13,.14-1.7,.05-.55,.12-1.09,.17-1.63,.05-.58,.08-1.15,.13-1.73,.07-.8,.16-1.59,.23-2.39,.07-.78,.12-1.56,.2-2.33,.03-.28,.04-.57,.07-.85,.06-.55,.12-1.11,.16-1.67,.04-.57,.1-1.13,.14-1.7,.05-.77,.15-1.53,.22-2.3,.07-.8,.12-1.6,.2-2.4,.03-.27,.04-.55,.07-.82,.04-.36,.07-.73,.1-1.09,.03-.31,.05-.63,.08-.94,.05-.54,.12-1.09,.16-1.63,.05-.57,.07-1.13,.14-1.7,.03-.26,.04-.53,.07-.79,.04-.37,.07-.75,.1-1.12,.03-.34,.05-.69,.1-1.03,.07-.47,.04-.52-.43-.52-7.21,0-14.42,0-21.63,0-.43,0-.44,0-.44,.44,0,1.98,0,3.97,0,5.95,0,.09,0,.18,0,.27,0,.15-.08,.22-.23,.22-.08,0-.16,0-.24,0-1.28,0-2.56,0-3.84,0-4.17,0-8.34,0-12.51,0-.15,0-.31-.04-.44,.06,0,.13,.01,.26,.03,.4,.07,.78,.14,1.56,.22,2.34,.12,1.29,.24,2.59,.35,3.88,.02,.25,.02,.27,.29,.27,.08,0,.16,0,.24,0,5.24,0,10.48,0,15.73,0,.14,0,.28-.02,.42,.02,0,1.24,0,2.48,0,3.72,0,1.1,0,2.2,0,3.29Z"/>
    <path class="cls-15" d="M78.96,11.53c.14-.1,.3-.06,.44-.06,4.17,0,8.34,0,12.51,0,1.28,0,2.56,0,3.84,0,.08,0,.16,0,.24,0,.15,0,.23-.07,.23-.22,0-.09,0-.18,0-.27,0-1.98,0-3.97,0-5.95,0-.44,0-.44,.44-.44,7.21,0,14.42,0,21.63,0,.47,0,.5,.05,.43,.52-.05,.34-.07,.69-.1,1.03-.03,.37-.07,.75-.1,1.12-.03,.26-.04,.53-.07,.79-.06,.56-.09,1.13-.14,1.7-.05,.55-.11,1.09-.16,1.63-.03,.31-.05,.63-.08,.94-.03,.36-.06,.73-.1,1.09-.03,.27-.04,.55-.07,.82-.08,.8-.13,1.6-.2,2.4-.07,.77-.17,1.53-.22,2.3-.04,.57-.1,1.13-.14,1.7-.04,.56-.11,1.11-.16,1.67-.03,.28-.04,.57-.07,.85-.08,.78-.13,1.56-.2,2.33-.07,.8-.16,1.59-.23,2.39-.05,.58-.08,1.15-.13,1.73-.05,.55-.12,1.09-.17,1.63-.05,.57-.09,1.13-.14,1.7-.05,.56-.1,1.11-.16,1.67-.03,.26-.04,.53-.07,.79-.08,.8-.13,1.6-.2,2.4-.05,.55-.12,1.09-.17,1.63-.05,.57-.09,1.13-.14,1.7-.05,.56-.1,1.11-.16,1.67-.03,.29-.04,.59-.07,.88-.08,.78-.13,1.56-.2,2.33-.07,.8-.16,1.59-.23,2.39-.07,.8-.12,1.6-.19,2.4-.05,.56-.12,1.11-.17,1.66-.02,.18-.11,.26-.28,.31-1.77,.48-3.55,.97-5.32,1.47-1.92,.53-3.84,1.07-5.76,1.6-1.82,.51-3.65,1-5.47,1.51-.35,.1-.7,.2-1.06,.3-.32,.09-.37,.05-.37-.29,0-2.05,0-4.11,0-6.16,0-.19,0-.39,0-.58,0-.01,0-.03,0-.04,.09,0,.18-.03,.27-.05,4.46-1.24,8.93-2.47,13.39-3.71q.46-.13,.5-.62s0-.04,0-.06c.12-1.31,.23-2.61,.35-3.92,.09-.98,.17-1.96,.26-2.95,.11-1.28,.23-2.55,.34-3.83,.09-1,.18-2.01,.27-3.01,.11-1.28,.23-2.55,.34-3.83,.09-.99,.18-1.98,.27-2.98,.11-1.28,.23-2.55,.34-3.83,.09-1,.18-2.01,.27-3.01,.11-1.29,.23-2.57,.35-3.86,.09-.99,.17-1.99,.27-2.98,.05-.47,.06-.41-.36-.41-5.51,0-11.02,0-16.54,0-.11,0-.22,.01-.33,.02-.11,0-.22-.01-.33-.01-5.52,0-11.05,0-16.57,0-.12,0-.24,0-.36,.01Z"/>
    <path class="cls-10" d="M96.24,50.53s0,.03,0,.04c-2.17-.61-4.34-1.21-6.51-1.82-2.45-.68-4.89-1.36-7.34-2.04-.29-.08-.29-.08-.31-.38-.18-2.06-.37-4.11-.55-6.17-.12-1.37-.24-2.73-.37-4.1-.02-.26-.01-.26,.23-.26,2.15,0,4.29,0,6.44,0,.23,0,.23,0,.25,.23,.14,1.6,.29,3.2,.43,4.8,.04,.47,.04,.47,.47,.58,2.3,.62,4.61,1.24,6.91,1.86,.07,.02,.14,.03,.21,.04,.04,.04,.1,.05,.15,.06,0,2.17,0,4.33,0,6.5,0,.21,0,.43,0,.64Z"/>
    <path class="cls-5" d="M78.96,11.53c.12,0,.24-.01,.36-.01,5.52,0,11.05,0,16.57,0,.11,0,.22,0,.33,.01,0,2.11,0,4.23,0,6.34q0,.49,.48,.49c2.94,0,5.87,0,8.81,0,.14,0,.29-.04,.41,.06-.09,0-.18,0-.27,0-3.05,0-6.1,0-9.15,0-.09,0-.18,0-.27,.01-.14-.04-.28-.02-.42-.02-5.24,0-10.48,0-15.73,0-.08,0-.16,0-.24,0-.27,0-.27-.02-.29-.27-.11-1.29-.23-2.59-.35-3.88-.07-.78-.14-1.56-.22-2.34-.01-.13-.02-.26-.03-.4Z"/>
    <path class="cls-10" d="M80.8,32.34c-.12-1.32-.24-2.65-.35-3.97-.08-.9-.16-1.8-.24-2.7-.01-.14,.02-.21,.17-.2,.09,0,.18,0,.27,0,5.06,0,10.12,0,15.18,0,.13,0,.26-.01,.39-.02,.09,0,.18,.01,.27,.01,2.84,0,5.68,0,8.52,0,.1,0,.2,0,.3-.01-.12,.1-.27,.07-.41,.07-2.72,0-5.45,0-8.17,0-.09,0-.18,0-.27,0-.15,0-.23,.06-.23,.22,0,.05,0,.1,0,.15,0,2.15,0,4.31,0,6.46-.09,0-.18,.01-.27,.01-4.94,0-9.88,0-14.82,0-.11,0-.22-.01-.33-.02Z"/>
    <path class="cls-6" d="M80.8,32.34c.11,0,.22,.02,.33,.02,4.94,0,9.88,0,14.82,0,.09,0,.18,0,.27-.01,.12,0,.24,.02,.36,.02,2.57,0,5.14,0,7.71,0,.08,0,.16,0,.24,0,.12,0,.16,.06,.15,.17,0,.05,0,.1-.01,.15-.13,1.47-.27,2.93-.4,4.4-.12,1.32-.24,2.63-.36,3.95-.03,.29-.03,.29-.3,.36-1.5,.41-3,.81-4.5,1.22-.97,.26-1.94,.53-2.91,.8-.05-.02-.11-.02-.15-.06,.1-.03,.14-.11,.14-.21,0-.08,0-.16,0-.24,0-3.33,0-6.67,0-10q0-.47-.47-.47c-4.84,0-9.68,0-14.52,0-.15,0-.31,.04-.44-.07Z"/>
    <path class="cls-15" d="M105.31,25.44c-.1,0-.2,.01-.3,.01-2.84,0-5.68,0-8.52,0-.09,0-.18,0-.27-.01,0-1.1,0-2.2,0-3.29,0-1.24,0-2.48,0-3.72,.09,0,.18-.01,.27-.01,3.05,0,6.1,0,9.15,0,.09,0,.18,0,.27,0-.07,.8-.13,1.59-.2,2.39-.14,1.54-.28,3.09-.41,4.63Z"/>
    <path class="cls-2" d="M105.31,25.44c.14-1.54,.28-3.09,.41-4.63,.07-.8,.13-1.59,.2-2.39-.13-.1-.27-.06-.41-.06-2.94,0-5.87,0-8.81,0q-.48,0-.48-.49c0-2.11,0-4.23,0-6.34,.11,0,.22-.02,.33-.02,5.51,0,11.02,0,16.54,0,.42,0,.41-.06,.36,.41-.1,.99-.18,1.98-.27,2.98-.11,1.29-.23,2.57-.35,3.86-.09,1-.18,2.01-.27,3.01-.11,1.28-.23,2.55-.34,3.83-.09,.99-.18,1.98-.27,2.98-.11,1.28-.23,2.55-.34,3.83-.09,1-.18,2.01-.27,3.01-.11,1.28-.23,2.55-.34,3.83-.09,.98-.17,1.96-.26,2.95-.12,1.31-.23,2.61-.35,3.92,0,.02,0,.04,0,.06q-.05,.49-.5,.62c-4.46,1.24-8.93,2.47-13.39,3.71-.09,.02-.17,.06-.27,.05,0-.21,0-.43,0-.64,0-2.17,0-4.33,0-6.5,.97-.27,1.94-.53,2.91-.8,1.5-.41,3-.81,4.5-1.22,.27-.07,.27-.07,.3-.36,.12-1.32,.24-2.63,.36-3.95,.13-1.47,.27-2.93,.4-4.4,0-.05,0-.1,.01-.15,.01-.11-.03-.17-.15-.17-.08,0-.16,0-.24,0-2.57,0-5.14,0-7.71,0-.12,0-.24-.01-.36-.02,0-2.15,0-4.31,0-6.46,0-.05,0-.1,0-.15,0-.16,.08-.22,.23-.22,.09,0,.18,0,.27,0,2.72,0,5.45,0,8.17,0,.14,0,.29,.04,.41-.07Z"/>
  </g>
  <g>
    <path class="cls-9" d="M143.4,0c1.76,0,3.51,0,5.27,0,8.77,.04,17.53,0,26.3,.02,5.74,0,11.48,0,17.22,0,.3,0,.3,0,.27,.3-.18,1.95-.36,3.91-.54,5.86-.14,1.5-.27,3-.4,4.51-.16,1.78-.33,3.57-.49,5.35-.12,1.35-.24,2.69-.36,4.04-.13,1.49-.27,2.98-.41,4.46-.12,1.34-.24,2.68-.36,4.02-.13,1.49-.27,2.98-.41,4.46-.11,1.18-.21,2.36-.31,3.53-.14,1.5-.27,3-.41,4.51-.12,1.32-.23,2.64-.35,3.96-.14,1.5-.27,3-.41,4.51-.11,1.17-.21,2.34-.31,3.51-.09,.98-.18,1.96-.26,2.94-.01,.14-.08,.18-.19,.21-1.58,.44-3.16,.89-4.74,1.34-5.08,1.44-10.17,2.87-15.25,4.31-.72,.2-1.44,.41-2.17,.61-.1,.03-.19,.03-.29,0-5.28-1.49-10.56-2.98-15.84-4.47-2.05-.58-4.1-1.16-6.15-1.73-.15-.04-.21-.1-.23-.27-.14-1.67-.3-3.34-.45-5.01-.12-1.33-.24-2.65-.36-3.98-.15-1.64-.3-3.27-.45-4.91-.12-1.3-.23-2.61-.35-3.91-.14-1.5-.28-3-.41-4.5-.11-1.19-.21-2.38-.32-3.58-.13-1.47-.27-2.95-.41-4.42-.1-1.14-.21-2.28-.31-3.43-.14-1.51-.28-3.02-.41-4.53-.12-1.31-.24-2.62-.35-3.93-.15-1.65-.3-3.3-.45-4.95-.12-1.3-.24-2.61-.35-3.91-.14-1.5-.27-3-.41-4.5-.04-.41-.05-.4,.35-.4,1.84,0,3.67,0,5.51,0Zm35.8,54.21c.21,0,.4-.09,.59-.13,.27-.07,.52-.17,.79-.24,.79-.21,1.58-.42,2.36-.64,.38-.11,.37-.1,.39-.5,.02-.4,.05-.8,.09-1.2,.05-.57,.11-1.13,.16-1.7,.04-.39,.06-.77,.09-1.16,.05-.56,.11-1.12,.16-1.68,.04-.4,.06-.8,.09-1.2,.05-.57,.11-1.15,.16-1.72,.04-.39,.06-.79,.1-1.18,.05-.55,.11-1.09,.16-1.64,.04-.4,.06-.8,.09-1.2,.05-.57,.11-1.15,.16-1.72,.03-.39,.06-.77,.09-1.16,.05-.58,.11-1.16,.16-1.74,.03-.39,.06-.77,.09-1.16,.05-.55,.11-1.11,.16-1.66,.04-.39,.06-.79,.09-1.18,.05-.58,.11-1.16,.16-1.74,.03-.39,.06-.77,.09-1.16,.05-.56,.11-1.12,.16-1.68,.03-.39,.06-.77,.09-1.16,.05-.57,.11-1.15,.16-1.72,.04-.39,.06-.79,.1-1.18,.05-.56,.11-1.12,.16-1.68,.04-.4,.06-.8,.09-1.2,.05-.57,.11-1.15,.16-1.72,.03-.39,.06-.77,.09-1.16,.05-.53,.11-1.06,.16-1.6,.05-.57,.08-1.14,.14-1.71,.06-.62,.13-1.25,.17-1.87,.02-.35,.06-.7,.09-1.05,.05-.56,.11-1.12,.16-1.68,.05-.54,.09-1.08,.14-1.62,.07-.72,.14-1.44,.2-2.17,.03-.31,.01-.31-.3-.31-7.29,0-14.58,0-21.88,0-.36,0-.32-.04-.32,.32,0,17.48,0,34.96,0,52.44,0,.05,0,.1,0,.15-.01,.13,.05,.17,.16,.15,.07,.06,.14,0,.2-.01,1.1-.3,2.21-.6,3.31-.91,3.15-.86,6.3-1.72,9.44-2.59,.35-.1,.72-.15,1.05-.32h0Zm-16.25-23.7c0-6.07,0-12.13,0-18.2,0-.18-.03-.24-.23-.24-1.68,0-3.36,0-5.04,0-.18,0-.22,.05-.22,.23,0,1.16,0,2.32,0,3.49,0,2.93-.01,5.87-.02,8.8,0,1.64,0,3.27-.01,4.91,0,3.66-.02,7.33-.03,10.99,0,.37,0,.37-.36,.27-3.33-.91-6.65-1.82-9.98-2.72-.29-.08-.27-.12-.27,.21,0,1.99,0,3.98,.01,5.97,0,.39-.07,.32,.31,.42,5.19,1.4,10.39,2.8,15.58,4.21q.25,.07,.25-.19c0-6.04,0-12.09,0-18.13Z"/>
    <path class="cls-4" d="M165.2,58.03c-.12,.02-.18-.03-.16-.15,0-.05,0-.1,0-.15,0-17.48,0-34.96,0-52.44,0-.36-.04-.32,.32-.32,7.29,0,14.58,0,21.88,0,.31,0,.33,0,.3,.31-.06,.72-.14,1.44-.2,2.17-.05,.54-.09,1.08-.14,1.62-.05,.56-.11,1.12-.16,1.68-.03,.35-.07,.7-.09,1.05-.04,.63-.1,1.25-.17,1.87-.06,.57-.09,1.14-.14,1.71-.05,.53-.11,1.06-.16,1.6-.04,.39-.06,.77-.09,1.16-.05,.57-.11,1.15-.16,1.72-.04,.4-.06,.8-.09,1.2-.05,.56-.11,1.12-.16,1.68-.04,.39-.06,.79-.1,1.18-.05,.57-.11,1.15-.16,1.72-.03,.39-.06,.77-.09,1.16-.05,.56-.11,1.12-.16,1.68-.04,.39-.06,.77-.09,1.16-.05,.58-.11,1.16-.16,1.74-.03,.39-.06,.79-.09,1.18-.05,.55-.11,1.11-.16,1.66-.04,.39-.06,.77-.09,1.16-.05,.58-.11,1.16-.16,1.74-.03,.39-.06,.77-.09,1.16-.05,.57-.11,1.15-.16,1.72-.04,.4-.06,.8-.09,1.2-.05,.55-.11,1.09-.16,1.64-.04,.39-.06,.79-.1,1.18-.05,.57-.11,1.15-.16,1.72-.04,.4-.06,.8-.09,1.2-.05,.56-.11,1.12-.16,1.68-.04,.39-.06,.77-.09,1.16-.05,.57-.11,1.13-.16,1.7-.04,.4-.07,.8-.09,1.2-.02,.39,0,.39-.39,.5-.79,.22-1.58,.43-2.36,.64-.26,.07-.52,.17-.79,.24-.21-.02-.4,.05-.59,.13,0,0,0,0,0,0-.06,.01-.13,.02-.19,.03-.78,.21-1.56,.41-2.33,.62-3.69,1-7.39,2.01-11.08,3.01-.14,.04-.3,.03-.41,.16Zm7.46-34.57c0-1.52,0-3.03,0-4.55,0-.2,.04-.26,.25-.26,2.61,0,5.21-.01,7.82-.02,1.13,0,2.27-.01,3.4-.01,.14,0,.2-.03,.21-.18,.14-2.04,.28-4.08,.44-6.12,.02-.23-.05-.25-.24-.25-2.04,.02-4.08,.03-6.12,.04-3.27,.02-6.55,.03-9.82,.04-.4,0-.79,.01-1.19,0-.16,0-.21,.04-.2,.2,.02,.56,.02,1.12,.03,1.68,.02,1.38,.01,2.76,.04,4.14,.03,1.72,.01,3.44,.05,5.16,.03,1.37,.01,2.73,.04,4.1,.03,1.61,.03,3.22,.05,4.82,.01,1.19,.03,2.38,.04,3.57,0,.13,.01,.19,.17,.16,2.47-.43,4.94-.85,7.41-1.27,.94-.16,1.88-.32,2.82-.49,.17-.03,.23-.01,.21,.19-.04,.52-.04,1.05-.05,1.57-.03,1.12-.06,2.24-.09,3.35,0,.14-.05,.19-.19,.23-1.23,.32-2.46,.65-3.7,.98-2.22,.59-4.43,1.18-6.65,1.77-.16,.04-.2,.11-.19,.26,.02,.32,.02,.64,.03,.95,.02,1.7,.05,3.4,.07,5.1,0,.19,.03,.24,.24,.19,3.36-.88,6.73-1.76,10.09-2.63,1.43-.37,2.86-.75,4.3-1.12,.1-.03,.2-.04,.21-.19,.09-1.2,.19-2.4,.29-3.6,.1-1.28,.21-2.57,.31-3.85,.12-1.52,.25-3.03,.38-4.55,.08-.93,.16-1.86,.23-2.79,.08-.95,.15-1.89,.23-2.84,.01-.15-.02-.2-.18-.18-.32,.04-.65,.07-.97,.11-1.71,.19-3.42,.39-5.13,.58-1.46,.16-2.93,.32-4.39,.49-.2,.02-.25-.01-.25-.22,0-1.52,0-3.05,0-4.57Z"/>
    <path class="cls-11" d="M162.95,30.5c0,6.04,0,12.09,0,18.13q0,.26-.25,.19c-5.19-1.4-10.39-2.8-15.58-4.21-.39-.1-.31-.03-.31-.42,0-1.99-.01-3.98-.01-5.97,0-.32-.02-.28,.27-.21,3.33,.91,6.65,1.82,9.98,2.72,.36,.1,.36,.1,.36-.27,0-3.66,.02-7.33,.03-10.99,0-1.64,0-3.27,.01-4.91,0-2.93,.01-5.87,.02-8.8,0-1.16,0-2.32,0-3.49,0-.17,.04-.23,.22-.23,1.68,0,3.36,0,5.04,0,.2,0,.23,.07,.23,.24,0,6.07,0,12.13,0,18.2Z"/>
    <path class="cls-7" d="M165.2,58.03c.11-.12,.27-.12,.41-.16,3.69-1.01,7.38-2.01,11.08-3.01,.78-.21,1.55-.42,2.33-.62,.06-.02,.12-.02,.19-.03-.33,.16-.7,.22-1.05,.32-3.15,.87-6.29,1.73-9.44,2.59-1.1,.3-2.21,.61-3.31,.91-.06,.02-.13,.07-.2,.01Z"/>
    <path class="cls-7" d="M179.2,54.21c.19-.08,.38-.15,.59-.13-.2,.04-.39,.13-.59,.13Z"/>
    <path class="cls-12" d="M172.67,23.46c0,1.52,0,3.05,0,4.57,0,.2,.05,.24,.25,.22,1.46-.17,2.93-.33,4.39-.49,1.71-.19,3.42-.39,5.13-.58,.32-.04,.65-.06,.97-.11,.16-.02,.19,.03,.18,.18-.08,.95-.15,1.89-.23,2.84-.08,.93-.16,1.86-.23,2.79-.13,1.52-.25,3.03-.38,4.55-.11,1.28-.21,2.57-.31,3.85-.1,1.2-.2,2.4-.29,3.6-.01,.15-.11,.16-.21,.19-1.43,.37-2.86,.75-4.3,1.12-3.36,.88-6.73,1.75-10.09,2.63-.2,.05-.24,0-.24-.19-.02-1.7-.04-3.4-.07-5.1,0-.32-.01-.64-.03-.95,0-.15,.03-.22,.19-.26,2.22-.58,4.44-1.18,6.65-1.77,1.23-.33,2.46-.66,3.7-.98,.13-.03,.18-.09,.19-.23,.03-1.12,.06-2.24,.09-3.35,.01-.52,.01-1.05,.05-1.57,.01-.21-.04-.22-.21-.19-.94,.17-1.88,.33-2.82,.49-2.47,.42-4.94,.84-7.41,1.27-.16,.03-.17-.03-.17-.16-.01-1.19-.03-2.38-.04-3.57-.02-1.61-.02-3.22-.05-4.82-.03-1.37-.01-2.73-.04-4.1-.04-1.72-.02-3.44-.05-5.16-.03-1.38-.02-2.76-.04-4.14,0-.56-.01-1.12-.03-1.68,0-.16,.05-.2,.2-.2,.4,0,.79,0,1.19,0,3.27-.01,6.55-.03,9.82-.04,2.04,0,4.08-.02,6.12-.04,.19,0,.26,.02,.24,.25-.16,2.04-.3,4.08-.44,6.12-.01,.16-.07,.18-.21,.18-1.13,0-2.27,0-3.4,.01-2.61,0-5.21,.02-7.82,.02-.21,0-.25,.06-.25,.26,0,1.52,0,3.03,0,4.55Z"/>
  </g>
</svg>