<?xml version="1.0" encoding="UTF-8"?>
<svg id="Capa_1" data-name="Capa 1" xmlns="http://www.w3.org/2000/svg" viewBox="0 0 66.97 50.82">
  <defs>
    <style>
      .cls-1 {
        fill: #3cbec0;
      }
    </style>
  </defs>
  <path class="cls-1" d="M.17,24.85h0c3.7-3.7,9.86-9.87,14.78-14.81,0,0,.02-.02,.02-.02,.26-.27,.69-.28,.95-.02,1.05,1.05,2.05,2.05,3.06,3.07,.26,.26,.26,.68,0,.93-3.6,3.61-7.25,7.26-10.92,10.93-.26,.26-.26,.68,0,.94,3.68,3.69,7.33,7.34,10.94,10.96,.26,.26,.26,.68,0,.94-1.04,1.03-2.05,2.05-3.09,3.09-.26,.26-.68,.26-.94,0C10.07,35.9,.17,25.96,.17,25.96c-.2-.21-.26-.8,0-1.11Z"/>
  <path class="cls-1" d="M21.2,50.8c.5-1.38,.95-2.66,1.42-3.93C28.21,31.47,33.81,16.08,39.38,.68c.19-.52,.43-.69,.98-.68,1.71,.04,3.43,.01,5.24,.01-.09,.28-.15,.5-.22,.71-5.98,16.47-11.97,32.94-17.94,49.41-.19,.52-.42,.69-.98,.68-1.71-.04-3.43-.01-5.27-.01Z"/>
  <path class="cls-1" d="M66.8,24.85h0c-3.7-3.7-9.86-9.87-14.78-14.81,0,0-.02-.02-.02-.02-.26-.27-.69-.28-.95-.02-1.05,1.05-2.05,2.05-3.06,3.07-.26,.26-.26,.68,0,.93,3.6,3.61,7.25,7.26,10.92,10.93,.26,.26,.26,.68,0,.94-3.68,3.69-7.33,7.34-10.94,10.96-.26,.26-.26,.68,0,.94,1.04,1.03,2.05,2.05,3.09,3.09,.26,.26,.68,.26,.94,0,4.92-4.94,14.82-14.88,14.82-14.88,.2-.21,.26-.8,0-1.11Z"/>
</svg>