<?xml version="1.0" encoding="UTF-8"?>
<svg id="Capa_1" data-name="Capa 1" xmlns="http://www.w3.org/2000/svg" viewBox="0 0 327.5 327.5">
  <defs>
    <style>
      .cls-1 {
        fill: none;
        stroke-linecap: round;
      }

      .cls-1, .cls-2 {
        stroke: #fff;
        stroke-miterlimit: 10;
        stroke-width: 11px;
      }

      .cls-2, .cls-3 {
        fill: #06243f;
      }

      .cls-4 {
        fill: #00c6c7;
      }
    </style>
  </defs>
  <g>
    <rect class="cls-3" x="28.77" y="28.77" width="269.96" height="269.96" rx="134.98" ry="134.98"/>
    <path class="cls-4" d="M94.63,229.74c.37-9.26,1.61-18.41,3.3-27.51,.96-5.17,2.1-10.28,3.9-15.25,2.75-7.56,7.73-12.75,15.43-15.27,5.44-1.78,10.92-3.51,16.03-6.16,.97-.5,1.34,.2,1.83,.7,4.75,4.89,10.34,8.52,16.95,10.23,15.1,3.89,28.66,1.14,40.02-10,1.06-1.04,1.79-1.15,3.08-.49,4.64,2.4,9.61,3.97,14.57,5.54,7.89,2.5,13.13,7.63,15.91,15.4,.91,2.53,1.74,5.07,2.33,7.69,2.56,11.34,4.29,22.81,4.87,34.44,.03,.63,0,1.26,.03,1.89,.11,3.45-1.4,5.82-4.64,7.1-5.53,2.2-11.2,3.94-16.98,5.36-11.65,2.86-23.43,4.98-35.37,6.09-9.55,.89-19.09,.66-28.63-.47-11.92-1.41-23.67-3.61-35.26-6.71-3.86-1.03-7.66-2.28-11.39-3.71-5-1.92-6.09-3.52-5.99-8.85Z"/>
    <path class="cls-4" d="M126.17,116.2c0-7.54,1.07-14.03,3.98-20.13,4.04-8.45,10.64-14.01,19.56-16.68,9.35-2.81,18.8-2.86,28.13,.02,12.75,3.94,19.88,13.01,22.52,25.81,2.11,10.23,.68,20.3-1.77,30.28-2.05,8.36-5.2,16.24-10.87,22.87-7.08,8.29-16.18,11.76-26.97,10.84-12.7-1.08-20.92-8.44-26.54-19.27-4.12-7.94-6.18-16.51-7.37-25.31-.42-3.07-.77-6.16-.67-8.44Z"/>
  </g>
  <g>
    <circle class="cls-2" cx="254.92" cy="263.32" r="43.82"/>
    <line class="cls-1" x1="254.92" y1="236.68" x2="254.92" y2="289.96"/>
    <line class="cls-1" x1="281.56" y1="263.32" x2="228.27" y2="263.32"/>
  </g>
</svg>