<?xml version="1.0" encoding="UTF-8"?>
<svg id="Capa_1" data-name="Capa 1" xmlns="http://www.w3.org/2000/svg" viewBox="0 0 69.01 68.89">
  <defs>
    <style>
      .cls-1 {
        fill: #38383a;
      }

      .cls-2 {
        fill: #6c696d;
      }

      .cls-3 {
        fill: #6d6a6f;
      }

      .cls-4 {
        fill: #feca26;
      }

      .cls-5 {
        fill: #af1916;
      }

      .cls-6 {
        fill: #e5031f;
      }

      .cls-7 {
        fill: #fde472;
      }

      .cls-8 {
        fill: #fdc926;
      }

      .cls-9 {
        fill: #fce371;
      }

      .cls-10 {
        fill: #3b3a3a;
      }

      .cls-11 {
        fill: #6c696e;
      }
    </style>
  </defs>
  <path class="cls-6" d="M31.67,0h5.39c.06,.18,.21,.12,.33,.13,3.15,.24,6.23,.86,9.15,2.04,12.43,5.04,19.83,14.15,22.11,27.37,.13,.73,.06,1.49,.35,2.2v5.52c-.21,.07-.13,.25-.14,.39-.13,1-.21,2.01-.44,3-.31-.11-.5-.37-.72-.59-8.87-8.85-17.74-17.71-26.62-26.56-.23-.23-.41-.55-.79-.59h0c0-.13-.08-.22-.21-.27-1.38-1.89-3.17-3.02-5.59-2.95-2.62,0-4.54,1.22-5.83,3.45-5.89,10.1-11.78,20.21-17.67,30.31-.57,.98-.97,2.02-1.01,3.17-.09,2.42,.93,4.33,2.81,5.81,.06,.05,.11,.11,.17,.16,0,0-.02-.03-.02-.03,.05,.12,.14,.17,.27,.17h0c.01,.35,.31,.52,.53,.73,4.75,4.74,9.5,9.48,14.24,14.22,.21,.21,.39,.43,.59,.64-.51-.09-1.02-.15-1.52-.26C13.03,64.94,2.43,53.56,.36,39.39c-.1-.71-.06-1.45-.36-2.13v-5.65c.21-.07,.12-.26,.14-.4,.19-1.26,.31-2.54,.57-3.78C3.76,13.15,15.05,2.58,29.6,.35c.69-.11,1.41-.06,2.07-.35Z"/>
  <path class="cls-5" d="M68.42,40.66c-.37,2.55-1.15,4.98-2.19,7.33-3.97,8.97-10.55,15.24-19.72,18.74-4.75,1.82-9.69,2.46-14.76,2.03-1.07-.09-2.14-.15-3.18-.44-.2-.21-.39-.44-.59-.64-4.75-4.74-9.5-9.48-14.24-14.22-.22-.21-.52-.38-.53-.74,1.06,.48,2.15,.86,3.34,.86,5.98-.01,11.96,0,17.94-.01,.16,.11,.35,.08,.52,.08,5.7,0,11.4,.01,17.1,0,1.7,0,3.28-.45,4.58-1.62,2.57-2.3,3.06-5.56,1.28-8.63-4.78-8.22-9.57-16.44-14.36-24.66-1.12-1.93-2.23-3.88-3.34-5.82,.38,.04,.56,.36,.79,.59,8.88,8.85,17.75,17.71,26.62,26.56,.22,.22,.41,.48,.72,.59Z"/>
  <path class="cls-8" d="M40.29,12.92c1.11,1.94,2.22,3.88,3.34,5.82,4.78,8.22,9.58,16.43,14.36,24.66,1.78,3.07,1.29,6.33-1.28,8.63-1.3,1.17-2.88,1.61-4.58,1.62-5.7,.02-11.4,0-17.1,0-.18,0-.36,.03-.52-.08,0-1.08,0-2.16,.01-3.23,5.75,0,11.5,0,17.24-.02,3.24,0,4.95-2.89,3.33-5.68-5.76-9.91-11.54-19.8-17.31-29.71-.73-1.26-1.8-1.96-3.26-2.03,0-1.07,0-2.14-.01-3.2,2.42-.07,4.21,1.06,5.59,2.95,.07,.09,.14,.18,.21,.28h0Z"/>
  <path class="cls-9" d="M34.5,9.69c0,1.07,0,2.14,.01,3.2l-.02,.04c-1.58,.02-2.61,.87-3.37,2.18-3.23,5.56-6.47,11.11-9.7,16.66-2.49,4.28-4.99,8.55-7.47,12.83-1.54,2.65,0,5.64,2.98,5.67,5.86,.06,11.71,0,17.57,0,0,0,.02,.04,.02,.04,0,1.08,0,2.16-.01,3.23-5.98,0-11.96,0-17.94,.01-1.2,0-2.28-.38-3.34-.86,0,0,0,.01,0,.01-.05-.12-.15-.16-.27-.17,0,0,.02,.03,.02,.03-.06-.05-.11-.11-.17-.16-1.88-1.48-2.9-3.38-2.81-5.81,.04-1.14,.44-2.19,1.01-3.17,5.89-10.1,11.77-20.21,17.67-30.31,1.3-2.22,3.21-3.44,5.83-3.45Z"/>
  <path class="cls-5" d="M40.3,12.92c-.07-.09-.14-.18-.21-.28,.12,.05,.2,.14,.21,.28Z"/>
  <path class="cls-5" d="M12.95,52.55c.12,.01,.22,.05,.27,.17-.13,0-.22-.05-.27-.17Z"/>
  <path class="cls-5" d="M12.8,52.42c.06,.05,.11,.11,.17,.16-.06-.05-.11-.11-.17-.16Z"/>
  <path class="cls-10" d="M34.51,12.9c1.47,.07,2.53,.77,3.26,2.03,5.77,9.9,11.55,19.8,17.31,29.71,1.62,2.79-.09,5.67-3.33,5.68-5.75,.01-11.5,.01-17.24,.02,0,0-.02-.04-.02-.04,0-.52,.02-1.04,.03-1.56,.27,0,.54-.02,.81-.02,5.48,0,10.96,0,16.44,0,1.96,0,2.9-1.56,1.93-3.24-5.76-9.91-11.54-19.81-17.31-29.71-.43-.73-1.01-1.18-1.87-1.25,0-.52-.02-1.04-.02-1.57l.02-.04Z"/>
  <path class="cls-3" d="M34.5,12.94c0,.52,.02,1.04,.02,1.57,0,0-.03,.05-.03,.05-.94-.06-1.48,.49-1.91,1.23-5.74,9.85-11.46,19.71-17.24,29.54-.99,1.68-.03,3.46,1.99,3.42,5.5-.09,11-.03,16.49-.03,.22,0,.45-.02,.67-.04l.03,.05c0,.52-.02,1.04-.03,1.56-5.86,0-11.72,.05-17.57,0-2.98-.03-4.51-3.02-2.98-5.67,2.48-4.28,4.98-8.56,7.47-12.83,3.24-5.55,6.48-11.1,9.7-16.66,.76-1.31,1.79-2.16,3.37-2.18Z"/>
  <path class="cls-4" d="M34.52,14.5c.85,.07,1.44,.52,1.87,1.25,5.77,9.91,11.54,19.81,17.31,29.71,.97,1.67,.03,3.23-1.93,3.24-5.48,0-10.96,0-16.44,0-.27,0-.54,.02-.81,.02,0,0-.03-.05-.03-.05,0-1.28,0-2.57,0-3.85l.03-.05c.51,0,1.03,0,1.54,.02,.34,.02,.48-.08,.47-.44-.03-1.34-.02-2.68-.03-4.02-.65-.25-1.34-.04-2-.13,0-1.12,0-2.23,0-3.35,.66-.08,1.34,.12,2-.12,.01-2.61,.02-5.23,.03-7.84,0-1.7-.01-3.4,0-5.09,0-.41-.11-.56-.53-.53-.49,.04-.98,.03-1.47,.03l-.03-.06c0-2.9,0-5.8,0-8.7l.03-.05Z"/>
  <path class="cls-7" d="M34.49,44.82c0,1.28,0,2.57,0,3.85-.22,.01-.45,.04-.67,.04-5.5,0-11-.06-16.49,.03-2.02,.03-2.97-1.74-1.99-3.42,5.78-9.83,11.5-19.69,17.24-29.54,.43-.74,.97-1.29,1.91-1.23,0,2.9,0,5.8,0,8.7-.51,.02-1.03,.05-1.54,.04-.35,0-.47,.12-.47,.47,0,4.19,0,8.38,0,12.57,0,.35,.12,.47,.47,.47,.51,0,1.03,.03,1.54,.05,0,1.12,0,2.23,0,3.35-.51,.02-1.03,.04-1.54,.04-.28,0-.47,.05-.47,.4,.01,1.25,0,2.5,0,3.76,0,.29,.11,.39,.4,.39,.54,0,1.07,.02,1.61,.02Z"/>
  <path class="cls-11" d="M34.49,36.86c-.51-.02-1.03-.05-1.54-.05-.34,0-.47-.12-.47-.47,0-4.19,0-8.38,0-12.57,0-.35,.12-.48,.47-.47,.51,0,1.03-.02,1.54-.04,0,0,.03,.06,.03,.06,0,3.81-.02,7.62-.02,11.42,0,.64-.29,1.45,.16,1.87,.41,.39,1.2,.08,1.83,.13-.65,.24-1.33,.04-2,.12Z"/>
  <path class="cls-1" d="M36.49,36.74c-.62-.06-1.41,.26-1.83-.13-.45-.42-.16-1.23-.16-1.87,0-3.81,0-7.62,.02-11.42,.49,0,.99,0,1.47-.04,.42-.03,.54,.12,.53,.53-.02,1.7,0,3.4,0,5.09,0,2.61-.02,5.23-.03,7.84Z"/>
  <path class="cls-2" d="M34.49,44.82c-.54,0-1.07-.03-1.61-.02-.28,0-.4-.1-.4-.39,0-1.25,.01-2.5,0-3.76,0-.35,.19-.4,.47-.4,.51,0,1.03-.03,1.54-.04,.67,.08,1.35-.12,2,.13-.45,0-.89,.02-1.34,0-.48-.03-.68,.13-.67,.64,.03,1.27,.02,2.54,.02,3.8,0,0-.03,.05-.03,.05Z"/>
  <path class="cls-1" d="M34.52,44.77c0-1.27,0-2.54-.02-3.8-.01-.51,.19-.67,.67-.64,.44,.03,.89,0,1.34,0,0,1.34,0,2.68,.03,4.02,0,.37-.13,.46-.47,.44-.51-.03-1.03-.02-1.54-.02Z"/>
</svg>